<svg width="66" height="67" viewBox="0 0 66 67" fill="none" xmlns="http://www.w3.org/2000/svg">
<g clip-path="url(#clip0_101_81)">
<path d="M49.9621 44.653C44.2983 44.653 38.88 44.0662 33.5305 42.1259C31.4211 41.3608 29.4042 40.7035 27.1264 40.5532C25.5085 40.4464 23.7765 40.3947 22.239 39.8676C21.4809 39.6077 19.9683 38.956 19.3881 38.4562C18.1423 37.383 15.8173 36.3697 14.2058 35.929C13.7217 35.7966 13.8125 34.5372 13.8125 34.195C13.8125 33.6439 13.8125 33.0927 13.8125 32.5416C13.8125 31.9225 14.1842 31.7405 14.3041 31.2243C14.4774 30.4776 14.5396 29.7157 14.7675 28.9794C14.972 28.3189 14.5942 27.4822 14.9501 26.869C15.2403 26.3691 15.2163 25.749 15.5259 25.2156C15.9312 24.5174 16.5606 23.9883 16.9022 23.2799C17.2274 22.6055 18.414 22.3538 18.6016 21.5459C19.2584 18.7168 22.5605 19.0938 24.4299 17.688C25.0783 17.2003 25.7247 16.8229 26.1433 16.1018C26.3692 15.7125 27.0521 14.78 27.4775 14.5425C28.527 13.9565 34.2888 14.9756 34.2888 14.1661C34.2888 13.432 33.275 13.5548 33.0249 12.9563C32.5003 11.701 33.5189 13.3297 34.2888 13.4402C35.0195 13.5451 35.5322 14.2814 36.1005 14.771C37.1099 15.6405 38.897 16.1648 40.1593 16.6395C42.4453 17.4991 44.5683 19.2472 47.1252 19.2472C48.2955 19.2472 48.915 19.296 49.948 19.8521C50.4401 20.1171 51.1921 21.1526 51.7316 21.1829C52.3249 21.2163 54.0426 22.0208 54.5124 22.4062C55.4592 23.183 56.088 23.7915 56.7875 24.7586C57.8393 26.2127 57.6776 29.3126 56.9841 30.8613C56.4115 32.1401 56.7703 35.414 57.6582 36.628C58.2709 37.4658 57.4841 39.0695 57.2369 39.9214C57.0043 40.7227 56.2819 41.6779 56.2819 42.4754C56.2819 43.2775 55.7103 44.2044 54.9056 44.4245C53.2603 44.8744 51.7084 46.0772 49.9059 46.3468C48.6283 46.5378 47.0626 47.6686 45.8471 48.2018C43.4568 49.2504 40.943 49.9137 38.9655 51.4279C37.2473 52.7436 34.75 54.5734 32.2525 54.5734C30.8905 54.5734 30.8205 54.0658 29.6824 53.4174C29.0402 53.0515 28.2895 52.6225 27.6179 52.3151C27.0231 52.0428 26.4174 52.1594 25.8343 51.8043C25.1028 51.3587 23.8895 51.464 23.2783 50.944C22.6438 50.4042 21.8404 49.9838 21.1576 49.3847C20.0011 48.37 18.3915 47.8568 17.3095 46.9248C16.066 45.8535 14.6305 45.1957 13.7002 43.8196C11.9847 41.282 10.8927 38.6666 10.779 35.5123C10.6792 32.7429 11.0318 29.9785 11.0318 27.2319C11.0318 26.2007 10.6559 25.2322 10.7931 24.2478C11.0084 22.702 15.5843 23.8731 16.3967 24.5166C17.3958 25.308 19.5695 25.1626 20.7784 25.0408C23.4771 24.7689 25.9644 24.2834 28.7274 24.8123C31.2773 25.3004 33.9551 26.7066 36.1848 27.9712C37.2414 28.5706 39.1425 29.5254 40.4683 29.1138C41.6238 28.7551 42.5693 27.7267 43.6843 27.2185C45.2722 26.4948 46.7661 26.0221 48.5296 26.0221C49.9921 26.0221 50.7075 26.2291 51.2822 27.689C52.2849 30.2358 52.815 33.7476 50.8468 36.05C49.9334 37.1186 47.5908 37.6431 46.2825 38.0126C45.3473 38.2767 44.3637 38.4637 43.3894 38.3083C39.6233 37.7075 35.862 36.669 32.2665 35.472C29.8643 34.6723 27.5938 33.5645 25.1883 32.797" stroke="white" stroke-width="14" stroke-linecap="round"/>
<path d="M14.7897 40.2C12.6756 40.2 10.8337 42.0502 8.72268 42.4314C8.35915 42.4971 6.36246 43.4683 7.20592 43.2917C7.80484 43.1663 8.27152 43.0897 8.89121 43.1035C10.4639 43.1385 11.7965 43.4215 12.964 44.3671C13.5049 44.8051 13.7003 45.1229 14.3403 45.3349C14.8853 45.5155 15.4815 45.7903 15.8009 46.249" stroke="white" stroke-width="14" stroke-linecap="round"/>
<path d="M26.3006 53.9869C24 52.6429 7.9078 44.7008 5.5 43.0714C3.93669 42.0135 13.052 47.1404 11.1612 46.1273C10.1904 45.6073 8.82858 44.739 8.30287 44.0286" stroke="white" stroke-width="14" stroke-linecap="round"/>
<path d="M14.8134 20.3373C14.0851 20.3007 13.387 20.1251 12.6453 20.1251C12.2698 20.1251 11.8483 19.9779 12.0541 20.3963C12.1609 20.6135 12.4074 20.7028 12.5961 20.8443C12.8655 21.0464 13.0419 21.3455 13.2366 21.6107C13.4254 21.8678 13.5766 22.0186 13.8156 22.2474" stroke="white" stroke-width="14" stroke-linecap="round"/>
<path d="M33.0028 64.2569C31.9988 64.2573 31.0124 64.0397 30.1429 63.6263L21.0424 59.1875C19.6842 58.5613 20.346 58.3401 20.7952 58.2109C22.2397 57.8432 23.6227 57.3283 24.9122 56.678C25.0202 56.6369 25.1391 56.6191 25.2576 56.6264C25.3762 56.6337 25.4906 56.6658 25.59 56.7196L32.5828 60.1423C32.713 60.1991 32.8581 60.2287 33.0054 60.2287C33.1527 60.2287 33.2978 60.1991 33.428 60.1423L60.6977 47.1743C60.8253 47.1113 60.9309 47.0221 61.004 46.9153C61.0772 46.8086 61.1154 46.6881 61.115 46.5655V20.6251C61.1151 20.5006 61.0762 20.3782 61.0022 20.2696C60.9282 20.1611 60.8215 20.0701 60.6924 20.0054L33.4227 7.04829C33.2941 6.98862 33.149 6.95727 33.0014 6.95727C32.8538 6.95727 32.7087 6.98862 32.5802 7.04829L5.32643 20.0097C5.19643 20.0731 5.08849 20.163 5.01305 20.2708C4.93762 20.3786 4.89725 20.5006 4.89586 20.6251V46.5546C4.89623 46.6768 4.93605 46.7969 5.01124 46.9023C5.08644 47.0077 5.1943 47.0948 5.32377 47.1546L12.803 50.7108C16.8562 52.3794 19.3387 50.413 19.3387 48.4378V22.8368C19.3387 22.7505 19.3593 22.6651 19.3994 22.5854C19.4395 22.5057 19.4982 22.4333 19.5722 22.3723C19.6463 22.3113 19.7342 22.2629 19.8309 22.2298C19.9276 22.1968 20.0313 22.1798 20.136 22.1798H23.5913C23.8027 22.1798 24.0055 22.2491 24.1551 22.3723C24.3046 22.4955 24.3886 22.6625 24.3886 22.8368V48.44C24.3886 52.8962 21.4437 55.4474 16.314 55.4474C14.101 55.4791 11.9227 54.9915 10.0335 54.0415L2.86525 50.6539C1.99503 50.2364 1.27297 49.6381 0.771141 48.9188C0.269311 48.1994 0.00527476 47.3842 0.00539 46.5546V20.6251C0.0028034 19.7941 0.265723 18.9772 0.767728 18.2565C1.26973 17.5358 1.99314 16.9366 2.86525 16.5192L30.1376 3.54679C31.0161 3.1508 32.0014 2.94325 33.0028 2.94325C34.0041 2.94325 34.9894 3.1508 35.8679 3.54679L63.1376 16.5192C64.0077 16.9359 64.73 17.5333 65.2322 18.2519C65.7345 18.9704 65.9993 19.7849 66.0001 20.6141V46.5546C65.9986 47.3842 65.7336 48.1991 65.2315 48.9183C64.7293 49.6374 64.0074 50.2358 63.1376 50.6539L35.8679 63.6263C34.9968 64.0404 34.0085 64.2579 33.0028 64.2569Z" fill="#00D486"/>
<path d="M27.8304 37.8764C27.8304 37.7021 27.9145 37.535 28.064 37.4118C28.2135 37.2886 28.4163 37.2194 28.6278 37.2194H32.1548C32.3432 37.2199 32.5254 37.2754 32.6689 37.376C32.8124 37.4766 32.9081 37.6159 32.9389 37.7691C33.4704 40.7275 35.0651 42.2188 42.2759 42.2188C48.0196 42.2188 50.4675 41.1479 50.4675 38.6362C50.4675 37.1888 49.7738 36.1136 40.846 35.3931C33.3827 34.7844 28.7687 33.4223 28.7687 28.5084C28.7687 23.9755 33.4066 21.2711 41.1809 21.2711C49.9173 21.2711 54.2416 23.7696 54.7891 29.1303C54.7975 29.2198 54.7835 29.3097 54.748 29.3946C54.7126 29.4795 54.6564 29.5575 54.5829 29.6237C54.5094 29.69 54.4203 29.7432 54.3209 29.78C54.2215 29.8167 54.114 29.8364 54.0051 29.8376H50.4542C50.276 29.8355 50.1039 29.7844 49.9651 29.6923C49.8264 29.6002 49.7291 29.4725 49.6887 29.3296C48.8408 26.2178 46.7651 25.2237 41.1835 25.2237C34.911 25.2237 34.1827 27.0237 34.1827 28.3726C34.1827 30.0062 35.0439 30.4836 43.5118 31.4055C51.8921 32.3186 55.8736 33.6106 55.8736 38.4632C55.8736 43.3596 50.9193 46.1626 42.2786 46.1626C30.3315 46.1757 27.8304 41.6625 27.8304 37.8764Z" fill="#00D486"/>
</g>
<defs>
<clipPath id="clip0_101_81">
<rect width="66" height="67" fill="white"/>
</clipPath>
</defs>
</svg>
