<svg width="64" height="62" viewBox="0 0 64 62" fill="none" xmlns="http://www.w3.org/2000/svg">
<g clip-path="url(#clip0_101_107)">
<path d="M42.6936 53.2813C42.6936 50.1323 44.1228 53.5525 42.4127 50.9649C40.9404 48.7372 39.5409 46.4508 38.1593 44.148C36.8869 42.0272 35.37 40.3135 34.497 37.8918C34.1345 36.8862 33.6784 35.9383 33.2955 34.9451C33.0764 34.3767 33.0971 33.8667 32.7917 33.3399C32.0331 32.0313 27.7267 31.9096 27.2545 30.4482C26.6729 28.648 29.6415 25.4175 28.955 23.6862C28.7921 23.2755 28.324 22.8342 28.238 22.4438C28.0661 21.6636 28.1274 20.9246 27.6567 20.2448C26.3385 18.3409 24.9496 16.4977 23.694 14.5384C22.8647 13.2444 22.6655 11.3211 22.3279 9.78853C22.2223 9.30914 24.0313 17.5117 24.0313 16.4688C22.1708 16.9263 23.2886 9.57828 22 9C21.7924 8.52889 22.0813 10.8858 21.5 9.78853C21.2081 9.43882 22.2504 10.3789 22.2504 11.2839M22.2504 11.2839C24.8868 14.4428 20.304 14.2148 20.5064 15.0442C20.7699 16.1241 20.0625 10.8794 20.5064 11.8682C21.0013 12.9707 20.6019 13.6562 21.1458 14.7143C21.6372 15.6703 21.1311 17.1826 20.8164 18.1008C20.5206 18.964 22.3279 19.3187 22.3279 20.2448C22.3279 20.8107 20.8984 24.4479 20.5064 24.7198C19.6964 25.2815 18.4424 25.3625 17.5416 25.7753C16.421 26.2889 18.7577 27.099 17.5416 27.125C17.0295 27.136 14.1827 27.2983 13.7188 27.6094C12.5519 28.3918 10.2119 29.2335 9.47088 30.4482C8.95594 31.2922 12.6064 29.4723 9.03125 31.4844C9.03125 33.8754 14.5046 31.8614 16.1464 32.4603C18.2684 33.2343 16.7073 35.5314 18.875 35.8438C20.3824 36.061 20.7713 37.9637 22.2504 37.496C22.3878 37.4525 23.28 36.9459 23.3258 37.2321C23.4601 38.0704 23.4905 39.1332 23.4905 39.9809C23.4905 42.1073 20.9884 43.0363 20.9069 45.1155C20.8789 45.8302 22.3561 48.1735 21.795 48.6229C20.6587 49.5332 22.3047 49.8906 20.9069 49.8906C19.7254 49.8906 20.9069 50.2361 20.9069 51.5694C20.9069 53.0545 19.4019 55.8029 20.6614 53.2813C22.4829 52.0791 19.179 51.7537 21.795 52.7969C23.2481 52.295 23.4779 48.9584 24.6919 47.8456C25.7934 46.836 25.9069 49.7708 26.8622 48.6229C27.6077 47.7272 28.4639 46.3141 29.6574 46.248C30.9049 46.179 34.1966 45.502 36.1537 47.8456C38.381 47.8456 37.9727 49.591 40.0971 48.7329C41.7786 48.0537 42.1029 46.8874 42.6936 45.1155C43.478 42.763 42.8767 38.0569 43.8768 35.8438C44.7627 33.8833 48.0114 36.0764 49.7664 35.0331C52.8767 33.1842 46.1723 31.7757 49.7664 31.4844C54.1417 29.3953 55.5 30.3712 53.721 30.3712C46.5702 26.2151 49.5263 27.8159 48.5 27.125C46.6855 25.9035 46.1716 25.9868 44.612 24.3349C43.7057 23.375 42.5106 20.5913 41.8438 19.375C40.6992 17.2875 43.7235 17.4454 43.8768 15.0442C44.027 12.691 43.7352 11.4107 43 9.5C40.7303 8.15613 40.3628 10.3156 39.2057 12.4493C37.628 15.3587 36.5111 14.2878 36.1537 17.694C35.8147 20.9256 37.5793 23.1779 39.2057 25.5774C39.7149 26.3286 41.713 26.3943 42.5193 26.5669C43.237 26.7206 45.9362 28.3039 44.612 29.4146C43.6584 30.2145 42.1307 30.3867 41.0078 30.3712C37.7595 30.3263 34.8463 28.8716 32.3267 26.6109C29.8254 24.3667 28.3291 21.5079 26.8622 18.3866C26.6299 17.8923 26.2985 17.4967 26.1065 16.9793C25.9231 16.485 25.7744 15.4301 25.4961 15.0442C25.3266 14.809 24.9052 14.6671 24.6919 14.5604C23.3373 13.8825 21.9942 13.1812 20.6614 12.4493C19.3559 11.7325 22.2465 11.7388 21.1458 10.6563C20.6856 10.2036 21.1623 9.32522 20.9069 8.74556C20.3763 7.54112 21.3488 11.7954 22.2504 11.2839Z" stroke="white" stroke-width="14" stroke-linecap="round"/>
<path d="M31.9718 37.2929C35.0628 37.2929 37.5686 34.3661 37.5686 30.7558C37.5686 27.1455 35.0628 24.2188 31.9718 24.2188C28.8808 24.2188 26.375 27.1455 26.375 30.7558C26.375 34.3661 28.8808 37.2929 31.9718 37.2929Z" fill="#00D8FF"/>
<path fill-rule="evenodd" clip-rule="evenodd" d="M32.0005 18.4819C39.515 18.4819 46.4957 19.6626 51.7591 21.6467C58.1009 24.0374 62 27.6611 62 30.9424C62 34.3617 57.8677 38.2114 51.0575 40.6821C45.9089 42.55 39.1336 43.5251 32.0005 43.5251C24.6871 43.5251 17.7617 42.6098 12.555 40.6616C5.96764 38.1961 2 34.2966 2 30.9424C2 27.6878 5.72287 24.092 11.9754 21.705C17.2585 19.6881 24.4116 18.4819 31.9995 18.4819H32.0005Z" stroke="#00D8FF" stroke-width="2.73408"/>
<path fill-rule="evenodd" clip-rule="evenodd" d="M22.0942 24.7481C25.8483 17.6202 30.2695 11.5883 34.4688 7.58675C39.5282 2.7655 44.3429 0.877369 46.9387 2.51642C49.6439 4.22461 50.6249 10.0677 49.1774 17.7617C48.0841 23.5788 45.4697 30.4925 41.9062 37.2588C38.2525 44.1961 34.0688 50.3081 29.9268 54.2725C24.6856 59.2895 19.6184 61.105 16.9648 59.4293C14.39 57.8046 13.4053 52.4759 14.6405 45.3523C15.6842 39.3333 18.3034 31.9456 22.093 24.7479L22.0942 24.7481Z" stroke="#00D8FF" stroke-width="2.73408"/>
<path fill-rule="evenodd" clip-rule="evenodd" d="M22.1036 37.277C18.3389 30.1571 15.7758 22.949 14.7059 16.967C13.418 9.7594 14.3286 4.24867 16.922 2.60486C19.6245 0.891664 24.7375 2.87899 30.1021 8.09482C34.1581 12.0382 38.3229 17.97 41.8969 24.73C45.5611 31.6606 48.3073 38.6821 49.3756 44.5913C50.7274 52.0692 49.6333 57.7828 46.9823 59.4633C44.4099 61.0939 39.7028 59.3675 34.6835 54.6379C30.4427 50.642 25.9055 44.4676 22.1036 37.2769V37.277Z" stroke="#00D8FF" stroke-width="2.73408"/>
</g>
<defs>
<clipPath id="clip0_101_107">
<rect width="64" height="62" fill="white"/>
</clipPath>
</defs>
</svg>
