<svg width="64" height="64" viewBox="0 0 64 64" fill="none" xmlns="http://www.w3.org/2000/svg">
<g clip-path="url(#clip0_102_120)">
<path d="M9.46036 57.6023L4 0H64L58.5338 57.5933L33.9633 64L9.46036 57.6023Z" fill="#264DE4"/>
<path d="M53.8543 53.926L58.5255 4.70985H34.0001V59.103L53.8543 53.926Z" fill="#2965F1"/>
<path d="M16.5179 26.0737L17.1912 33.1383H34.0002V26.0737H16.5179Z" fill="#EBEBEB"/>
<path d="M15.8476 18.8394H33.9998V11.7746H33.9738H15.1648L15.8476 18.8394Z" fill="#EBEBEB"/>
<path d="M33.9656 51.7808L34.0001 51.7717V44.4215L33.9672 44.4297L25.6017 42.3052L25.067 36.6708H21.002H17.5267L18.5791 47.7634L33.9656 51.7808Z" fill="#EBEBEB"/>
<path d="M52.7901 11.7746H33.974V18.8394H44.5583L43.8748 26.0737H33.974V33.1383H43.2234L42.3515 42.3007L33.974 44.4274V51.7773L49.3727 47.7634L49.4857 46.5698L51.2508 27.9708L51.4341 26.0737L52.7901 11.7746Z" fill="white"/>
</g>
<defs>
<clipPath id="clip0_102_120">
<rect width="64" height="64" fill="white"/>
</clipPath>
</defs>
</svg>
